Coordinates
version=1
nRows=60
nColumns=12
inDegrees=yes

Units are S.I. units (second, meters, Newtons, ...)
Angles are in degrees

endheader
time	SC_y	SC_z	SC_x	AC_y	AC_z	AC_x	GH_y	GH_z	GH_yy	EL_x	PS_y
       0.0              -23.44          34.96          22.56          62.39          6.886          19.04         -107.3          33.27          17.15          139.5          89.87
   0.04845              -23.45          34.96          22.56          62.39          6.884          19.04         -107.3          33.26          17.16          139.5          89.86
    0.0969              -23.45          34.96          22.56          62.38          6.881          19.04         -107.3          33.26          17.18          139.4          89.85
    0.1454              -23.46          34.95          22.55          62.38          6.879          19.04         -107.2          33.25          17.19          139.4          89.84
    0.1938              -23.46          34.95          22.55          62.38          6.876          19.04         -107.2          33.24          17.21          139.4          89.83
    0.2423              -23.47          34.95          22.55          62.37          6.873          19.04         -107.2          33.24          17.23          139.4          89.82
    0.2907              -23.48          34.95          22.55          62.37           6.87          19.04         -107.1          33.23          17.24          139.4          89.81
    0.3392              -23.48          34.95          22.54          62.37          6.867          19.04         -107.1          33.22          17.26          139.3           89.8
    0.3876              -23.49          34.95          22.54          62.36          6.864          19.04         -107.1          33.21          17.29          139.3          89.78
    0.4361               -23.5          34.95          22.54          62.36           6.86          19.04         -107.0           33.2          17.31          139.3          89.77
    0.4845              -23.51          34.95          22.53          62.35          6.856          19.03         -107.0          33.19          17.33          139.3          89.75
     0.533              -23.52          34.94          22.53          62.35          6.852          19.03         -106.9          33.18          17.36          139.2          89.74
    0.5814              -23.53          34.94          22.52          62.34          6.848          19.03         -106.9          33.17          17.39          139.2          89.72
    0.6299              -23.54          34.94          22.52          62.33          6.843          19.03         -106.8          33.15          17.42          139.2           89.7
    0.6783              -23.55          34.94          22.52          62.33          6.838          19.03         -106.7          33.14          17.45          139.1          89.68
    0.7268              -23.56          34.94          22.51          62.32          6.832          19.03         -106.7          33.13          17.49          139.1          89.66
    0.7752              -23.58          34.93           22.5          62.31          6.826          19.03         -106.6          33.11          17.53          139.0          89.64
    0.8237              -23.59          34.93           22.5           62.3          6.819          19.03         -106.5          33.09          17.57          139.0          89.61
    0.8721              -23.61          34.93          22.49          62.29          6.812          19.03         -106.4          33.07          17.62          138.9          89.58
    0.9206              -23.63          34.93          22.48          62.28          6.803          19.03         -106.3          33.05          17.67          138.9          89.55
     0.969              -23.64          34.92          22.47          62.27          6.795          19.02         -106.2          33.02          17.73          138.8          89.52
     1.017              -23.67          34.92          22.46          62.26          6.785          19.02         -106.1           33.0          17.79          138.7          89.48
     1.066              -23.69          34.92          22.45          62.24          6.774          19.02         -105.9          32.97          17.86          138.7          89.44
     1.114              -23.72          34.91          22.44          62.23          6.762          19.02         -105.8          32.94          17.93          138.6          89.39
     1.163              -23.75          34.91          22.43          62.21          6.749          19.02         -105.6           32.9          18.02          138.5          89.34
     1.211              -23.78           34.9          22.42          62.19          6.734          19.01         -105.5          32.86          18.11          138.4          89.28
      1.26              -23.82          34.89           22.4          62.17          6.717          19.01         -105.2          32.82          18.22          138.3          89.22
     1.308              -23.86          34.89          22.38          62.15          6.698          19.01         -105.0          32.77          18.33          138.1          89.14
     1.357               -23.9          34.88          22.36          62.12          6.677          19.01         -104.8          32.71          18.47          138.0          89.06
     1.405              -23.96          34.87          22.34          62.09          6.653           19.0         -104.5          32.64          18.62          137.8          88.97
     1.454              -24.02          34.86          22.31          62.05          6.626           19.0         -104.1          32.57          18.79          137.6          88.86
     1.502              -24.09          34.85          22.28          62.01          6.594          18.99         -103.7          32.49          18.99          137.4          88.74
      1.55              -24.17          34.83          22.25          61.96          6.558          18.99         -103.3          32.39          19.22          137.1           88.6
     1.599              -24.26          34.82          22.21          61.91          6.516          18.98         -102.8          32.27          19.49          136.8          88.44
     1.647              -24.37           34.8          22.16          61.84          6.467          18.97         -102.1          32.14           19.8          136.5          88.25
     1.696               -24.5          34.78          22.11          61.77          6.408          18.96         -101.4          31.98          20.17          136.1          88.02
     1.744              -24.65          34.75          22.04          61.68          6.339          18.95         -100.6           31.8          20.61          135.6          87.75
     1.793              -24.83          34.72          21.96          61.57          6.256          18.94         -99.54          31.57          21.14          135.0          87.43
     1.841              -25.05          34.68          21.86          61.44          6.156          18.92          -98.3           31.3          21.77          134.3          87.04
      1.89              -25.32          34.64          21.75          61.28          6.033           18.9         -96.78          30.97          22.55          133.4          86.57
     1.938              -25.66          34.58           21.6          61.08          5.882          18.88         -94.91          30.57          23.51          132.3          85.99
     1.987              -26.07          34.51          21.42          60.83          5.694          18.85         -92.58          30.06           24.7          131.0          85.26
     2.035              -26.59          34.42           21.2          60.52          5.456          18.81         -89.64          29.42          26.21          129.3          84.34
     2.083              -27.26          34.31          20.91          60.13          5.154          18.76          -85.9           28.6          28.12          127.1          83.17
     2.132              -28.11          34.16          20.54          59.62          4.768          18.69         -81.12          27.56          30.57          124.4          81.67
      2.18              -29.21          33.97          20.07          58.98          4.271          18.61         -74.98          26.22          33.71          120.9          79.75
     2.229               -30.6          33.74          19.46          58.15          3.638          18.51         -67.14          24.52          37.73          116.3           77.3
     2.277              -32.36          33.44           18.7          57.11          2.841          18.38         -57.28          22.37          42.77          110.7          74.22
     2.326               -34.5          33.07          17.77          55.84           1.87          18.22         -45.27          19.75          48.93          103.8          70.46
     2.374              -36.98          32.65           16.7          54.37         0.7449          18.04         -31.34          16.72          56.06          95.74          66.11
     2.423              -39.66          32.19          15.54          52.78        -0.4737          17.84         -16.26          13.44          63.78          87.07          61.39
     2.471              -42.35          31.73          14.37          51.19         -1.692          17.64          -1.18          10.15           71.5          78.39          56.68
      2.52              -44.83          31.31           13.3          49.72         -2.818          17.46          12.75          7.118          78.63          70.38          52.32
     2.568              -46.97          30.94          12.37          48.45         -3.788           17.3          24.76          4.501          84.78          63.47          48.57
     2.616              -48.73          30.64          11.61          47.41         -4.585          17.17          34.62          2.354          89.83          57.79          45.49
     2.665              -50.12           30.4          11.01          46.59         -5.219          17.07          42.46         0.6463          93.84          53.28          43.03
     2.713              -51.22          30.22          10.53          45.94         -5.715          16.99           48.6        -0.6906          96.99          49.75          41.11
     2.762              -52.07          30.07          10.16          45.43         -6.101          16.92          53.38         -1.732          99.43           47.0          39.62
      2.81              -52.73          29.96          9.874          45.04         -6.403          16.87          57.12         -2.546          101.3          44.85          38.45
     2.859              -53.26          29.87          9.648          44.73         -6.641          16.84          60.06         -3.187          102.9          43.16          37.53
